<svg width="21" height="20" viewBox="0 0 21 20" fill="none" xmlns="http://www.w3.org/2000/svg">
<g clip-path="url(#clip0_2_910)">
<path fill-rule="evenodd" clip-rule="evenodd" d="M14.2384 1.79548C14.8545 1.80297 15.4647 1.91538 16.0425 2.12783C16.4615 2.28841 16.8421 2.5344 17.1596 2.84997C17.4772 3.16554 17.7248 3.54369 17.8864 3.96008C18.1002 4.53427 18.2133 5.14063 18.2208 5.75281C18.2671 6.77098 18.2773 7.07621 18.2773 9.65359C18.2773 12.231 18.2675 12.5362 18.2208 13.5544C18.2133 14.1666 18.1002 14.7729 17.8864 15.3471C17.7248 15.7635 17.4772 16.1416 17.1596 16.4572C16.8421 16.7728 16.4615 17.0188 16.0425 17.1794C15.4647 17.3918 14.8545 17.5042 14.2384 17.5117C13.2143 17.5577 12.9071 17.5678 10.3129 17.5678C7.71875 17.5678 7.41159 17.5581 6.38742 17.5117C5.77137 17.5042 5.16116 17.3918 4.58334 17.1794C4.16431 17.0188 3.78377 16.7728 3.4662 16.4572C3.14863 16.1416 2.90108 15.7635 2.73948 15.3471C2.52569 14.7729 2.41257 14.1666 2.40503 13.5544C2.35877 12.5362 2.34859 12.231 2.34859 9.65359C2.34859 7.07621 2.35831 6.77098 2.40503 5.75281C2.41257 5.14063 2.52569 4.53427 2.73948 3.96008C2.90108 3.54369 3.14863 3.16554 3.4662 2.84997C3.78377 2.5344 4.16431 2.28841 4.58334 2.12783C5.16116 1.91538 5.77137 1.80297 6.38742 1.79548C7.41205 1.74952 7.71921 1.7394 10.3129 1.7394C12.9066 1.7394 13.2138 1.74906 14.2384 1.79548ZM6.30786 0.0579188C5.5016 0.0738547 4.70389 0.225553 3.94868 0.50656C3.30082 0.749114 2.71403 1.12922 2.22925 1.62035C1.73456 2.10226 1.35172 2.68568 1.10748 3.32987C0.824689 4.08033 0.67203 4.87302 0.655993 5.6742C0.609735 6.70295 0.598633 7.033 0.598633 9.65313C0.598633 12.2733 0.609735 12.6033 0.656919 13.633C0.672955 14.4342 0.825614 15.2269 1.1084 15.9773C1.35237 16.6214 1.73489 17.2048 2.22925 17.6868C2.7143 18.1781 3.30142 18.5582 3.9496 18.8006C4.70482 19.0816 5.50252 19.2333 6.30879 19.2493C7.34498 19.2952 7.67573 19.3072 10.3138 19.3072C12.952 19.3072 13.2827 19.2962 14.3189 19.2493C15.1252 19.2333 15.9229 19.0816 16.6781 18.8006C17.3232 18.5521 17.909 18.1726 18.3981 17.6863C18.8872 17.2 19.2687 16.6176 19.5184 15.9764C19.8012 15.2259 19.9538 14.4333 19.9699 13.6321C20.0161 12.6033 20.0272 12.2733 20.0272 9.65313C20.0272 7.033 20.0161 6.70295 19.9689 5.67329C19.9529 4.8721 19.8002 4.07941 19.5174 3.32895C19.2735 2.68485 18.891 2.10143 18.3966 1.61943C17.9115 1.12819 17.3244 0.748076 16.6762 0.50564C15.921 0.224633 15.1233 0.0729354 14.3171 0.0569995C13.2818 0.0110322 12.9497 0 10.3129 0C7.67619 0 7.34405 0.0110321 6.30786 0.0579188Z" fill="#FD6003"/>
<path fill-rule="evenodd" clip-rule="evenodd" d="M7.53931 5.53171C6.71896 6.07641 6.07957 6.8506 5.702 7.7564C5.32443 8.66219 5.22564 9.6589 5.41812 10.6205C5.6106 11.5821 6.08571 12.4653 6.78337 13.1586C7.48103 13.8519 8.3699 14.324 9.33758 14.5153C10.3053 14.7065 11.3083 14.6084 12.2198 14.2332C13.1313 13.858 13.9104 13.2226 14.4586 12.4074C15.0067 11.5922 15.2993 10.6338 15.2993 9.6534C15.2993 8.3387 14.7737 7.07783 13.8382 6.14819C12.9027 5.21856 11.6338 4.69629 10.3108 4.69629C9.32415 4.69629 8.35967 4.98702 7.53931 5.53171ZM8.5118 12.3288C7.97929 11.9753 7.56426 11.4727 7.31918 10.8848C7.07409 10.2968 7.00997 9.64983 7.13491 9.02566C7.25985 8.40148 7.56825 7.82814 8.02111 7.37814C8.47396 6.92813 9.05094 6.62168 9.67907 6.49752C10.3072 6.37336 10.9583 6.43708 11.55 6.68063C12.1416 6.92417 12.6474 7.33659 13.0032 7.86574C13.359 8.39489 13.5489 9.017 13.5489 9.6534C13.5489 10.5068 13.2077 11.3252 12.6005 11.9287C11.9932 12.5321 11.1696 12.8711 10.3108 12.8711C9.67035 12.8711 9.0443 12.6824 8.5118 12.3288Z" fill="#FD6003"/>
<path fill-rule="evenodd" clip-rule="evenodd" d="M15.4977 5.65855C14.8539 5.65855 14.332 5.13993 14.332 4.50017C14.332 3.86042 14.8539 3.3418 15.4977 3.3418C16.1416 3.3418 16.6635 3.86042 16.6635 4.50017C16.6635 5.13993 16.1416 5.65855 15.4977 5.65855Z" fill="#FD6003"/>
</g>
<defs>
<clipPath id="clip0_2_910">
<rect width="19.4286" height="19.3072" fill="white" transform="translate(0.598633)"/>
</clipPath>
</defs>
</svg>
